<svg height="560" width="560" version="1.1" id="Layer_1" xmlns="http://www.w3.org/2000/svg" xmlns:xlink="http://www.w3.org/1999/xlink" x="0px" y="0px" viewBox="0 -40 560 560" enable-background="new 0 0 560 480" xml:space="preserve">
<path fill="#000000" opacity="1.000000" stroke="none" 
	d="
M545.251587,298.000000 
	C545.300415,354.817780 545.318909,411.135681 545.469177,467.453186 
	C545.478455,470.942291 544.387329,472.334625 540.959167,472.289276 
	C534.295471,472.201141 527.629700,472.264771 520.964783,472.264313 
	C356.674652,472.253601 192.384506,472.227631 28.094397,472.308746 
	C23.448902,472.311066 21.692417,471.134979 21.696209,466.152313 
	C21.796522,334.353790 21.744606,202.555161 21.741062,70.756561 
	C21.740452,48.098774 40.016800,29.839142 62.744049,29.833513 
	C209.871826,29.797073 356.999634,29.781534 504.127411,29.784700 
	C527.110291,29.785194 545.299255,48.029987 545.300720,71.060417 
	C545.305481,146.540283 545.270752,222.020142 545.251587,298.000000 
M310.499939,454.692688 
	C380.816376,454.695251 451.132965,454.644135 521.449036,454.811432 
	C526.584778,454.823639 527.991272,453.324219 527.855408,448.305756 
	C527.517334,435.817932 527.749939,423.314697 527.749634,410.817657 
	C527.747437,313.673920 527.739502,216.530212 527.762451,119.386497 
	C527.763245,116.009079 527.789368,113.114456 524.335510,110.763008 
	C520.828186,108.375160 520.294006,99.233994 523.626648,97.216774 
	C528.243164,94.422493 527.767273,90.576035 527.747986,86.475868 
	C527.726074,81.810402 527.772949,77.144501 527.733765,72.479256 
	C527.607971,57.489635 517.518860,47.329147 502.631470,47.327454 
	C356.332703,47.310799 210.033905,47.309742 63.735130,47.324196 
	C49.821888,47.325573 39.471771,57.623928 39.277596,71.584015 
	C39.194172,77.581444 39.356865,83.583206 39.217209,89.578568 
	C39.145996,92.635658 39.767532,94.676758 42.811897,96.409180 
	C48.363876,99.568558 48.976154,107.595474 43.673943,110.478081 
	C39.292000,112.860382 39.213272,115.940498 39.214798,119.893478 
	C39.256844,228.867676 39.246399,337.841888 39.241806,446.816101 
	C39.241474,454.683167 39.231281,454.698395 47.061890,454.698486 
	C134.541229,454.699310 222.020569,454.695068 310.499939,454.692688 
z"/>
<path fill="#000000" opacity="1.000000" stroke="none" 
	d="
M233.222580,399.029083 
	C226.016174,398.891083 225.534088,398.025177 227.987000,391.742889 
	C239.231888,362.943420 250.405899,334.116241 261.608154,305.300110 
	C273.834778,273.848907 286.076843,242.403702 298.285278,210.945419 
	C301.954529,201.490570 305.677063,192.051941 309.085938,182.502640 
	C310.506012,178.524673 312.487854,176.542862 317.023041,176.706055 
	C328.513519,177.119492 330.166321,174.708023 324.983002,187.789825 
	C311.091278,222.850143 297.594086,258.067078 283.998230,293.244263 
	C275.128387,316.193573 266.376617,339.188507 257.538666,362.150208 
	C253.302017,373.157410 248.879547,384.094299 244.752731,395.142029 
	C242.517014,401.127136 237.566635,398.339691 233.222580,399.029083 
z"/>
<path fill="#000000" opacity="1.000000" stroke="none" 
	d="
M148.146927,307.853638 
	C141.197464,300.884460 134.605103,294.052795 127.736847,287.510803 
	C124.707756,284.625641 124.877289,282.725555 127.813095,279.816162 
	C146.378159,261.418060 164.868134,242.941208 183.140228,224.253082 
	C186.689346,220.623184 188.907196,220.681808 192.453217,224.084045 
	C200.789673,232.082413 200.904633,231.895462 192.851532,239.919785 
	C179.643112,253.081039 166.560715,266.370087 153.244812,279.421234 
	C149.993073,282.608337 149.953735,284.686127 153.251633,287.928314 
	C167.972107,302.400055 182.397766,317.171356 197.079315,331.683319 
	C199.678741,334.252716 199.915405,335.886841 197.276535,338.593109 
	C188.175217,347.926758 188.267120,348.009277 179.101822,338.832886 
	C168.869034,328.587708 158.628830,318.349945 148.146927,307.853638 
z"/>
<path fill="#000000" opacity="1.000000" stroke="none" 
	d="
M430.614868,271.405457 
	C433.922455,274.708832 436.949463,277.800903 440.059021,280.807617 
	C442.186584,282.864807 442.081299,284.636963 439.988739,286.726135 
	C420.553650,306.129639 401.159180,325.573914 381.785034,345.038330 
	C379.846741,346.985687 378.325195,347.002289 376.359985,344.971680 
	C365.063599,333.299225 364.990662,336.712616 376.094635,325.606720 
	C389.850952,311.848053 403.759216,298.241272 417.680237,284.491455 
	C414.750275,279.649811 410.932953,276.661224 407.609253,273.291718 
	C395.337097,260.850250 383.012848,248.456314 370.490173,236.268509 
	C367.314972,233.178253 367.370972,231.264801 370.491882,228.209396 
	C380.714142,218.201691 378.137482,218.875504 387.381226,228.006516 
	C401.825165,242.274307 416.051117,256.762817 430.614868,271.405457 
z"/>
<path fill="#000000" opacity="1.000000" stroke="none" 
	d="
M406.468079,101.709007 
	C406.875488,107.549408 403.487213,112.142647 398.630951,112.850571 
	C394.713409,113.421631 390.135254,110.038879 389.026672,105.754074 
	C387.955353,101.613144 390.823578,96.932236 395.432922,95.299171 
	C399.737946,93.773926 403.608215,95.914200 406.468079,101.709007 
z"/>
<path fill="#000000" opacity="1.000000" stroke="none" 
	d="
M173.418396,111.620316 
	C169.284714,113.713493 165.985977,112.815269 163.082062,109.952736 
	C160.646088,107.551498 159.489716,104.751991 160.743301,101.351616 
	C162.130844,97.587868 164.768799,95.045227 168.819183,94.909195 
	C173.084030,94.765961 176.110046,97.245056 177.647217,101.099899 
	C179.425491,105.559273 177.086746,108.749489 173.418396,111.620316 
z"/>
<path fill="#000000" opacity="1.000000" stroke="none" 
	d="
M275.173523,100.192764 
	C276.744690,105.893532 274.625244,110.535416 270.014374,112.258896 
	C265.979279,113.767159 261.199402,111.669693 259.189209,107.508728 
	C257.245148,103.484665 258.731720,98.664337 262.671631,96.216583 
	C266.983063,93.538002 271.016632,94.727524 275.173523,100.192764 
z"/>
<path fill="#000000" opacity="1.000000" stroke="none" 
	d="
M456.252533,98.300079 
	C460.010254,94.528732 463.958740,93.455513 468.072968,96.674606 
	C471.436523,99.306328 473.264587,102.750534 471.219025,107.165283 
	C468.937866,112.088371 463.785126,114.063591 459.229401,111.777916 
	C454.423584,109.366776 453.207397,104.392220 456.252533,98.300079 
z"/>
<path fill="#000000" opacity="1.000000" stroke="none" 
	d="
M193.341782,106.267990 
	C192.855865,99.746323 196.659210,94.858246 201.829742,94.804825 
	C206.398254,94.757622 210.657394,98.984497 210.649506,103.789101 
	C210.641922,108.408813 207.907700,111.268578 203.746521,112.398552 
	C198.699631,113.769035 195.655472,110.796280 193.341782,106.267990 
z"/>
<path fill="#000000" opacity="1.000000" stroke="none" 
	d="
M438.540039,107.071968 
	C436.270264,111.265450 433.319763,113.716057 428.699524,112.494987 
	C424.434814,111.367874 421.668793,108.474136 421.578888,103.982315 
	C421.494049,99.743408 423.940826,96.901505 427.916962,95.363327 
	C431.136627,94.117790 433.837524,95.214790 436.174957,97.272911 
	C439.036469,99.792503 440.054108,102.972466 438.540039,107.071968 
z"/>
<path fill="#000000" opacity="1.000000" stroke="none" 
	d="
M501.525146,97.334900 
	C505.916687,103.154388 505.233307,108.245316 499.942657,111.491394 
	C495.642456,114.129776 490.326019,112.433861 487.799469,107.618202 
	C485.809570,103.825363 486.792023,100.485138 489.633972,97.677933 
	C493.243195,94.112839 497.202667,93.988556 501.525146,97.334900 
z"/>
<path fill="#000000" opacity="1.000000" stroke="none" 
	d="
M304.384003,96.368393 
	C307.875519,99.249489 309.685242,102.540520 308.108429,106.627937 
	C306.793793,110.035675 304.119934,112.513351 300.331390,112.725487 
	C296.302979,112.951050 293.523621,110.613602 291.731323,107.097435 
	C289.978668,103.659050 290.934631,100.561989 293.361023,97.993774 
	C296.371765,94.807037 299.979553,93.725372 304.384003,96.368393 
z"/>
<path fill="#000000" opacity="1.000000" stroke="none" 
	d="
M373.058350,100.275040 
	C374.750275,106.011734 372.747437,110.352745 367.918762,112.190514 
	C363.882599,113.726646 359.086853,111.627113 357.159332,107.480156 
	C355.336761,103.558922 356.919678,98.576157 360.733551,96.229057 
	C365.169830,93.498917 369.110016,94.704193 373.058350,100.275040 
z"/>
<path fill="#000000" opacity="1.000000" stroke="none" 
	d="
M98.881569,96.689041 
	C104.563042,93.919411 109.617645,95.297302 111.781609,99.897438 
	C113.979507,104.569710 111.659103,110.253426 106.763710,112.188538 
	C102.502808,113.872833 97.376823,111.352699 95.572510,106.643532 
	C94.038727,102.640427 95.818306,99.619247 98.881569,96.689041 
z"/>
<path fill="#000000" opacity="1.000000" stroke="none" 
	d="
M129.213898,108.480125 
	C126.877365,102.197021 128.649200,97.550018 133.847687,95.456161 
	C137.576523,93.954239 142.408081,95.958572 144.343216,99.810135 
	C146.492188,104.087318 144.751923,109.558281 140.372070,111.795319 
	C135.891891,114.083588 132.371841,112.376602 129.213898,108.480125 
z"/>
<path fill="#000000" opacity="1.000000" stroke="none" 
	d="
M62.827545,102.355637 
	C65.566185,95.843002 69.668495,93.551010 74.282867,95.577484 
	C78.336617,97.357750 80.898979,101.791168 80.034737,105.529419 
	C79.012840,109.949600 74.788353,113.093491 70.531975,112.601456 
	C65.880066,112.063698 63.082497,108.514427 62.827545,102.355637 
z"/>
<path fill="#000000" opacity="1.000000" stroke="none" 
	d="
M235.625122,112.630676 
	C230.991196,112.668526 228.016876,110.787865 226.430878,106.736801 
	C225.131958,103.419029 225.973770,100.445312 228.049728,97.901382 
	C231.283707,93.938385 237.138458,93.981499 240.794952,97.763908 
	C244.120102,101.203560 243.920547,107.026215 240.364883,110.303505 
	C239.115356,111.455231 237.665543,112.219696 235.625122,112.630676 
z"/>
<path fill="#000000" opacity="1.000000" stroke="none" 
	d="
M338.335510,110.292267 
	C332.923157,113.593414 328.865173,113.172867 325.767334,109.275185 
	C322.940491,105.718452 323.261871,100.756302 326.526611,97.551147 
	C329.925995,94.213821 334.007568,93.979469 337.684540,96.910477 
	C341.794464,100.186607 342.117004,104.692894 338.335510,110.292267 
z"/>
</svg>